<svg width="27" height="25" viewBox="0 0 27 25" fill="none" xmlns="http://www.w3.org/2000/svg">
<path d="M26.25 10.0458C26.3791 9.4 25.8625 8.625 25.2166 8.625L17.8541 7.59167L14.4958 0.875002C14.3666 0.616668 14.2375 0.487502 13.9791 0.358335C13.3333 -0.0291649 12.5583 0.229169 12.1708 0.875002L8.94163 7.59167L1.57913 8.625C1.19163 8.625 0.933293 8.75417 0.804126 9.0125C0.287459 9.52917 0.287459 10.3042 0.804126 10.8208L6.09996 15.9875L4.80829 23.35C4.80829 23.6083 4.80829 23.8667 4.93746 24.125C5.32496 24.7708 6.09996 25.0292 6.74579 24.6417L13.3333 21.1542L19.9208 24.6417C20.05 24.7708 20.3083 24.7708 20.5666 24.7708C20.6958 24.7708 20.6958 24.7708 20.825 24.7708C21.4708 24.6417 21.9875 23.9958 21.8583 23.2208L20.5666 15.8583L25.8625 10.6917C26.1208 10.5625 26.25 10.3042 26.25 10.0458Z" fill="url(#paint0_linear_129_1364)"/>
<defs>
<linearGradient id="paint0_linear_129_1364" x1="21.3883" y1="0.176269" x2="0.258925" y2="16.627" gradientUnits="userSpaceOnUse">
<stop stop-color="#37F4BA"/>
<stop offset="0.989475" stop-color="#954AFF"/>
</linearGradient>
</defs>
</svg>
