<svg width="61" height="51" viewBox="0 0 61 51" fill="none" xmlns="http://www.w3.org/2000/svg">
<path fill-rule="evenodd" clip-rule="evenodd" d="M43.5399 41.3666L48.8806 47.9293C49.6526 48.8781 50.9859 49.1045 52.0152 48.4617L59.1318 44.0173C60.2417 43.3241 60.6242 41.8593 60.0004 40.6906L51.5486 24.856C50.7023 23.2703 50.522 21.3999 51.0495 19.6752L55.4119 5.40943C55.8417 4.00377 54.9955 2.52454 53.5888 2.22258L45.6394 0.516183C44.4396 0.258637 43.2402 0.956072 42.8404 2.14377L41.6443 5.69705C20.6115 -4.64475 -3.85895 10.2747 0.899193 32.6539C5.65734 55.0331 37.2746 54.3953 43.5399 41.3666ZM27.2753 14.3658L26.0841 22.9276C26.0493 23.178 26.2388 23.402 26.4856 23.402H34.4467C35.2487 23.402 35.7332 24.3112 35.2996 25.0028L26.5095 39.0246C25.9775 39.8733 24.692 39.4027 24.8049 38.4006L25.6971 30.4816C25.7249 30.2348 25.5367 30.0183 25.2943 30.0183H16.6337C15.8188 30.0183 15.3369 29.083 15.7964 28.3932L25.5883 13.6944C26.1428 12.8619 27.4142 13.3679 27.2753 14.3658Z" fill="url(#paint0_linear_63_6471)"/>
<defs>
<linearGradient id="paint0_linear_63_6471" x1="48.9702" y1="0.462887" x2="5.05178" y2="39.5814" gradientUnits="userSpaceOnUse">
<stop stop-color="#37F4BA"/>
<stop offset="0.989475" stop-color="#954AFF"/>
</linearGradient>
</defs>
</svg>
