<svg width="66" height="55" viewBox="0 0 66 55" fill="none" xmlns="http://www.w3.org/2000/svg">
<path fill-rule="evenodd" clip-rule="evenodd" d="M46.8146 10.327L55.9189 22.2082C56.5039 22.9717 57.6821 22.8704 58.1286 22.0182L63.8098 11.175C64.7286 9.42149 64.2108 7.25767 62.5982 6.11176L56.0236 1.43976C54.9017 0.642583 53.3562 0.844799 52.4765 1.90386L46.8469 8.68125C46.4534 9.15488 46.44 9.83826 46.8146 10.327ZM42.8214 12.6094C42.8214 12.6094 56.0083 30.1757 64.4037 42.1849C64.549 42.4318 64.6986 42.6653 64.8417 42.8886C65.5687 44.0233 66.1272 44.8949 65.1027 45.9287L59.5606 51.0779C57.9378 52.7154 55.2657 52.6197 53.7638 50.8702L47.5728 43.6584C47.0947 44.0783 46.5837 44.5942 46.0135 45.1697C42.6252 48.5899 37.1509 54.1159 24.1304 54.1159C8.22156 54.1159 -5.09157 38.7964 2.17983 21.3489C10.8531 0.537727 33.6336 2.33371 42.8214 12.6094ZM33.4565 32.7233C31.5886 38.3898 26.6208 41.8441 22.3608 40.4385C18.1007 39.033 16.1614 33.3 18.0294 27.6335C19.8973 21.9669 24.865 18.5127 29.1251 19.9182C33.3852 21.3237 35.3244 27.0567 33.4565 32.7233Z" fill="url(#paint0_linear_63_6149)"/>
<defs>
<linearGradient id="paint0_linear_63_6149" x1="53.2912" y1="0.953399" x2="6.46747" y2="43.7889" gradientUnits="userSpaceOnUse">
<stop stop-color="#37F4BA"/>
<stop offset="0.989475" stop-color="#954AFF"/>
</linearGradient>
</defs>
</svg>
