<svg width="30" height="29" viewBox="0 0 30 29" fill="none" xmlns="http://www.w3.org/2000/svg">
<path d="M28.6916 1.71253C28.5624 1.32503 28.1749 0.937531 27.7874 0.808364C22.3624 -0.612469 16.8083 1.0667 13.0624 5.45836L11.6416 7.13753L8.15412 6.36253C6.47495 5.7167 4.66662 6.4917 3.89162 8.0417L1.04995 13.0792C0.791618 13.4667 0.791618 13.8542 1.04995 14.2417C1.17912 14.6292 1.56662 14.8875 1.95412 15.0167L5.95828 15.9209C5.57078 16.9542 5.44162 17.9875 5.18328 19.0209C5.18328 19.4084 5.31245 19.7959 5.57078 20.0542L9.57495 24.0584C9.83328 24.3167 10.0916 24.4459 10.4791 24.4459H10.6083C11.7708 24.3167 12.8041 24.1875 13.8375 23.8L14.6124 27.675C14.7416 28.0625 14.9999 28.45 15.3874 28.5792C15.5166 28.7084 15.7749 28.7084 15.9041 28.7084C16.1624 28.7084 16.2916 28.7084 16.5499 28.5792L21.5875 25.7375C23.0083 24.9625 23.7833 23.1542 23.3958 21.475L22.4916 17.8584L24.0416 16.4375C28.3041 12.8209 30.1124 7.00836 28.6916 1.71253ZM8.92912 10.3667C8.15412 11.4 7.37912 12.4334 6.86245 13.4667L4.14995 12.8209L6.08745 9.33336C6.34578 8.8167 6.86245 8.68753 7.50828 8.8167L9.70412 9.33336L8.92912 10.3667ZM20.1666 23.4125L16.6791 25.35L16.1624 22.7667C17.3249 22.25 18.3583 21.475 19.2624 20.7L20.1666 19.7959L20.6833 21.9917C20.9416 22.6375 20.5541 23.2834 20.1666 23.4125ZM21.0708 10.3667C20.0374 10.3667 19.1333 9.46253 19.1333 8.4292C19.1333 7.39586 20.0374 6.4917 21.0708 6.4917C22.1041 6.4917 23.0083 7.39586 23.0083 8.4292C23.0083 9.46253 22.2333 10.3667 21.0708 10.3667Z" fill="url(#paint0_linear_129_1390)"/>
<defs>
<linearGradient id="paint0_linear_129_1390" x1="23.8231" y1="0.315185" x2="-0.188613" y2="18.0876" gradientUnits="userSpaceOnUse">
<stop stop-color="#37F4BA"/>
<stop offset="0.989475" stop-color="#954AFF"/>
</linearGradient>
</defs>
</svg>
