<svg width="27" height="27" viewBox="0 0 27 27" fill="none" xmlns="http://www.w3.org/2000/svg">
<path d="M20.125 18.0208V19.9583C20.125 20.7333 19.6083 21.2499 18.8333 21.2499C18.0583 21.2499 17.5417 20.7333 17.5417 19.9583V18.0208H9.79167V19.9583C9.79167 20.7333 9.275 21.2499 8.5 21.2499C7.725 21.2499 7.20833 20.7333 7.20833 19.9583V18.0208H4.625C3.72083 18.0208 2.81667 17.7624 2.04167 17.3749V22.5416C2.04167 24.7374 3.72083 26.4166 5.91667 26.4166H21.4167C23.6125 26.4166 25.2917 24.7374 25.2917 22.5416V17.3749C24.5167 17.7624 23.6125 18.0208 22.7083 18.0208H20.125ZM25.2917 5.74992H20.125V4.45825C20.125 2.26242 18.4458 0.583252 16.25 0.583252H11.0833C8.8875 0.583252 7.20833 2.26242 7.20833 4.45825V5.74992H2.04167C1.26667 5.74992 0.75 6.26659 0.75 7.04159V12.2083C0.75 14.4041 2.42917 16.0833 4.625 16.0833H22.7083C24.9042 16.0833 26.5833 14.4041 26.5833 12.2083V7.04159C26.5833 6.26659 26.0667 5.74992 25.2917 5.74992ZM17.5417 5.74992H9.79167V4.45825C9.79167 3.68325 10.3083 3.16659 11.0833 3.16659H16.25C17.025 3.16659 17.5417 3.68325 17.5417 4.45825V5.74992Z" fill="url(#paint0_linear_129_1338)"/>
<defs>
<linearGradient id="paint0_linear_129_1338" x1="21.7055" y1="0.583252" x2="-0.15936" y2="16.8126" gradientUnits="userSpaceOnUse">
<stop stop-color="#37F4BA"/>
<stop offset="0.989475" stop-color="#954AFF"/>
</linearGradient>
</defs>
</svg>
